<?xml version="1.0" encoding="UTF-8"?>
<svg width="32px" height="32px" viewBox="0 0 32 32" version="1.1" xmlns="http://www.w3.org/2000/svg">
    <g stroke="none" stroke-width="1" fill="none" fill-rule="evenodd">
        <circle fill="#4F46E5" cx="16" cy="16" r="16"></circle>
        <path d="M13.5,21.6 L9.5,21.6 L9.5,11 L13.5,11 C14.7866667,11 15.84,11.44 16.66,12.32 C17.48,13.2 17.89,14.3733333 17.89,15.84 L17.89,16.76 C17.89,18.2266667 17.48,19.4 16.66,20.28 C15.84,21.16 14.7866667,21.6 13.5,21.6 Z M13.5,13 L11.5,13 L11.5,19.6 L13.5,19.6 C14.1,19.6 14.6,19.36 15,18.88 C15.4,18.4 15.6,17.7733333 15.6,17 L15.6,15.6 C15.6,14.8266667 15.4,14.2 15,13.72 C14.6,13.24 14.1,13 13.5,13 Z M24.56,11 L24.56,21.6 L22.56,21.6 L22.56,11 L24.56,11 Z" fill="#FFFFFF" fill-rule="nonzero"></path>
    </g>
</svg> 